<svg xmlns="http://www.w3.org/2000/svg" xmlns:xlink="http://www.w3.org/1999/xlink" viewBox="0 0 80 80">
	<defs>
		<circle id="a" cx="40" cy="40" r="32"/>
	</defs>
	<clipPath id="b">
		<use xlink:href="#a" overflow="visible"/>
	</clipPath>
	<path fill="#F0BF1A" d="M53.7 26H10c-1 0-2-1-2-2V10c0-1 1-2 2-2h57c1 0 2 1 2 2v.7C69 19 62 26 53.7 26z" clip-path="url(#b)"/>
	<defs>
		<circle id="c" cx="40" cy="40" r="32"/>
	</defs>
	<clipPath id="d">
		<use xlink:href="#c" overflow="visible"/>
	</clipPath>
	<path fill="#3EBEB0" d="M69 72H8.3V54H54c8.3 0 15 6.8 15 15.2V72z" clip-path="url(#d)"/>
	<defs>
		<circle id="e" cx="40" cy="40" r="32"/>
	</defs>
	<clipPath id="f">
		<use xlink:href="#e" overflow="visible"/>
	</clipPath>
	<path fill="#07A5DE" d="M50 49H5V31h45c5 0 9 4 9 9s-4 9-9 9z" clip-path="url(#f)"/>
	<defs>
		<circle id="g" cx="40" cy="40" r="32"/>
	</defs>
	<clipPath id="h">
		<use xlink:href="#g" overflow="visible"/>
	</clipPath>
	<path fill="#231F20" d="M36 31H6.4v18H36c.7-2.7 1-5.7 1-9s-.3-6.3-1-9z" clip-path="url(#h)"/>
	<path fill="#D7A229" d="M24 12.3c-5.5 3.2-10 8-12.8 13.7h23.6c-2.4-5.5-6.2-10-11-13.7z"/>
	<path fill="#019B8F" d="M25 68.2c4.5-3.7 8.2-8.6 10.5-14.2H11.2c3 6 7.8 11 13.7 14.2z"/>
	<path fill="none" d="M0 0h80v80H0z"/>
</svg>