<svg viewBox="0 0 77 41" xmlns="http://www.w3.org/2000/svg">
    <title>
        phpspec
    </title>
    <g fill="#333" fill-rule="evenodd">
        <path d="M22.068 0c.547 1.4606-.1487 2.8598-.216 4.2902-.0288.61-.0833 1.2183-.146 2.1075 3.6237-1.7723 6.844-2.1695 9.3106 1.838.214-.9514.3842-1.708.547-2.431 2.034-.6355 3.0437-.4366 3.775.7844.3726-.175.7736-.322 1.1336-.539 4.3448-2.61 9.3542.375 10.3774 4.481.9122 3.661-.1418 7.409-3.1745 9.599-2.647 1.912-6.346 1.855-8.93-.145-.3-.232-.621-.437-1.165-.817-.102.714-.162 1.251-.259 1.781-.103.57-.24 1.133-.397 1.857h-3.273c-.1-.456-.192-.867-.311-1.403-.318-.056-.68-.16-1.047-.18-2.173-.118-2.157-.11-1.892-2.244.334-2.688.662-5.376.949-8.069.216-2.018-1.078-3.103-3.082-2.645-1.703.389-2.673 1.546-3.082 3.146-.31 1.214-.456 2.473-.628 3.719-.231 1.6754-.429 3.356-.613 5.0374-.077.706-.424 1.0425-1.132 1.0346-.759-.008-1.518-.0013-2.296-.0013l-.36-1.728c-.3214.1633-.616.2726-.8666.4457-3.2025 2.2153-6.397 2.168-9.512-.145-.2224-.1654-.479-.2846-.8655-.5106l-.664 3.573H.938c0-.9382-.079-1.7532.0134-2.548.442-3.7964.931-7.5876 1.402-11.3805.101-.815.165-1.6375.3143-2.444.0546-.2944.243-.6666.4845-.806.9256-.5334 2.819-.054 3.5676.9446 4.081-2.605 7.669-1.8798 10.8846 2.191.542-3.107.7366-5.951.969-8.7898h3.4955zM5.6097 13.961c-.08 3.9368 3.3134 5.2572 6.025 4.25 3.173-1.1786 4.3946-5.9846 2.2268-8.5856-.799-.9587-1.8443-1.3745-3.0766-1.3597-2.938.0355-5.168 2.4894-5.176 5.6952zm37.869-1.1068c-.0093-.1576-.015-.4966-.0512-.8325-.3257-3.0203-2.9933-4.5992-5.82-3.4483-2.7673 1.1267-4.1962 4.4506-3.145 7.2416.617 1.6382 1.8328 2.4492 3.5123 2.6114 3.0427.2943 5.4063-2.0395 5.5038-5.5722z"/>
        <path d="M31.4354 37.087c-.1604 1.157-.303 2.0058-.389 2.8604-.0712.7066-.4102 1.0447-1.126 1.0314-.7612-.0146-1.5228-.0032-2.317-.0032-.1472-.707-.2515-1.2085-.3953-1.9003-2.045.7715-4.081.9788-6.075.0218-1.114-.534-2.003-1.338-2.759-2.333.265-.817.952-1.146 1.599-1.389.304-.113.779.172 1.158.322.795.315 1.552.81 2.373.954.995.176 1.791-.423 2.073-1.24.281-.811.058-1.422-.874-2.08-1.068-.754-2.229-1.384-3.256-2.187-2.749-2.149-1.83-6.008.638-7.348 1.316-.714 2.749-.98 4.226-.61.842.211 1.653.543 2.315.766.955-.14 1.78-.318 2.613-.368.81-.049 1.762-.221 1.836 1.192 4.385-2.684 8.075-1.99 11.191 2.056 1.861-2.171 3.9276-3.699 6.821-3.816 2.869-.115 5.0117 1.178 6.8356 3.401 2.406-3.242 5.2347-5.218 9.433-4.704l-.341 3.639c-.358.062-.63.122-.9057.1545-2.6648.313-4.9067 2.356-5.318 4.852-.4724 2.8605.8144 5.332 3.518 6.473.878.371 1.2366.837 1.0927 1.7418-.1185.748-.224 1.498-.3524 2.365-2.3065-.271-3.979-1.328-5.437-2.801-1.4355-1.4502-2.2644-3.234-2.6976-5.281h-9.921c.1286 2.936 3.208 4.674 5.9812 3.4656.3972-.1725.832-.3633 1.1166-.6686.818-.877 1.605-.667 2.439-.073.3812.2715.777.5227 1.245.836-1.7595 2.568-4.144 3.4596-6.982 3.312-2.8354-.1475-5.097-1.4075-6.79-3.8995-1.63 1.921-3.4296 3.3737-5.938 3.723-2.5557.355-4.5987-.692-6.6285-2.4624zm9.9327-5.8726c.005-2.361-.984-4.066-2.536-4.6662-1.79-.6926-3.748-.2035-5.197 1.2504-1.091 1.0942-1.583 2.462-1.653 3.9313-.077 1.607.389 3.105 1.821 4.056 1.446.96 3.028 1.048 4.564.251 2.046-1.062 2.935-2.865 3.004-4.823zm5.952-1.571c2.549.1505 5.073.1243 7.614.0156-.2-2.3364-1.452-3.516-3.578-3.5464-2.113-.0302-3.714 1.316-4.035 3.5307zM28.877 27.406c-.7447-.3582-1.276-.708-1.8594-.871-.7206-.2014-1.523-.451-2.2212-.3188-1.364.2585-1.781 1.9142-.704 2.771 1.2255.975 2.5868 1.7794 4.1198 2.813l.665-4.3942zm39.3824-5.6655c3.6557.8802 6.024 2.9115 7.2886 6.1273 1.2483 3.1736.814 6.271-.9824 9.2445.29.1948.65.3033.719.5088.189.563.3937 1.187.31 1.744-.0406.272-.692.597-1.097.646-1.5385.185-3.088.303-4.6363.377-1.112.054-1.2606-.126-1.3955-1.183-.1646-1.294-.3516-2.586-.501-3.882-.0484-.422-.0073-.854-.0073-1.255 1.799-.891 1.9908-.814 2.763 1.223 1.1706-1.245 1.743-2.614 1.662-4.208-.118-2.3143-1.221-4.034-3.33-5.0712-1.3442-.661-1.357-.662-1.1715-2.1783.075-.612.2176-1.216.3783-2.089"/>
    </g>
</svg>