<?xml version="1.0" encoding="UTF-8" standalone="no"?>
<svg width="77px" height="41px" viewBox="0 0 77 41" version="1.1" xmlns="http://www.w3.org/2000/svg" xmlns:xlink="http://www.w3.org/1999/xlink" xmlns:sketch="http://www.bohemiancoding.com/sketch/ns">
    <!-- Generator: Sketch 3.0.4 (8053) - http://www.bohemiancoding.com/sketch -->
    <title>Imported Layers</title>
    <desc>Created with Sketch.</desc>
    <defs></defs>
    <g id="Page-1" stroke="none" stroke-width="1" fill="none" fill-rule="evenodd" sketch:type="MSPage">
        <g id="Placemend-Ad" sketch:type="MSArtboardGroup" transform="translate(-70.000000, -5362.000000)" fill="#333333">
            <g id="Innovation" sketch:type="MSLayerGroup" transform="translate(0.000000, 4894.000000)">
                <g id="Logos" transform="translate(56.000000, 150.000000)" sketch:type="MSShapeGroup">
                    <g id="PHPSpec" transform="translate(0.000000, 286.000000)">
                        <g id="Imported-Layers" transform="translate(15.000000, 32.000000)">
                            <path d="M21.0678641,0 C21.6148544,1.46058865 20.9193204,2.8598227 20.8520388,4.29017021 C20.8232039,4.90022695 20.7687379,5.50853901 20.7061165,6.39774468 C24.3297087,4.62543972 27.5499029,4.22823404 30.0166019,8.23576596 C30.2306796,7.28433333 30.4007767,6.5277234 30.5635922,5.80455319 C32.5974757,5.16919858 33.6072816,5.3680922 34.3386408,6.58907801 C34.711165,6.41402837 35.112233,6.26631206 35.472233,6.04997163 C39.8169903,3.43992908 44.8264078,6.42478723 45.8496117,10.5308936 C46.7618447,14.1921064 45.707767,17.9396809 42.6751456,20.1301277 C40.0278641,22.0420071 36.3285437,21.9844326 33.7447573,19.9847376 C33.4447573,19.7524043 33.1237864,19.547695 32.58,19.1679362 C32.4780583,19.8815106 32.4171845,20.4182908 32.3207767,20.948383 C32.2173786,21.5177305 32.0804854,22.0809716 31.9237864,22.805305 L28.6502913,22.805305 C28.5495146,22.3493617 28.4583495,21.9384894 28.3392233,21.402 C28.021165,21.3452979 27.6585437,21.2420709 27.2915534,21.2217163 C25.1187379,21.103078 25.1341748,21.1115106 25.3998058,18.9768936 C25.7338835,16.2892128 26.0612621,13.6003688 26.3490291,10.9074539 C26.5645631,8.88885816 25.271068,7.80453901 23.2663107,8.26251773 C21.563301,8.65158156 20.5931068,9.80830496 20.1841748,11.4084681 C19.8739806,12.6224752 19.727767,13.8815532 19.5565049,15.1269645 C19.325534,16.8024397 19.1271845,18.4831489 18.9428155,20.1644397 C18.8653398,20.8701631 18.5181553,21.2065957 17.8103883,21.1987447 C17.0513592,21.1906028 16.2923301,21.1972908 15.5140777,21.1972908 C15.3719417,20.5151206 15.2761165,20.0553972 15.1540777,19.4688936 C14.8325243,19.6323121 14.537767,19.7416454 14.2872816,19.9146596 C11.0845631,22.1301135 7.89,22.0827163 4.77524272,19.7695603 C4.55271845,19.6043972 4.2961165,19.4851773 3.90961165,19.2592411 C3.67864078,20.502617 3.47067961,21.621539 3.24582524,22.8320567 L-0.0626213592,22.8320567 C-0.0626213592,21.8937092 -0.14184466,21.0786525 -0.049223301,20.2839504 C0.392912621,16.4875248 0.881650485,12.6963333 1.35320388,8.90339716 C1.45427184,8.08804965 1.51776699,7.2657234 1.66747573,6.45939007 C1.72194175,6.16482979 1.91038835,5.79263121 2.15184466,5.65334752 C3.07718447,5.11976596 4.97067961,5.59926241 5.7192233,6.59780142 C9.80009709,3.99386525 13.3884466,4.71907092 16.6036893,8.78941135 C17.1454369,5.68242553 17.34,2.83859574 17.5727184,0 L21.0678641,0 L21.0678641,0 Z M4.60980583,13.9609362 C4.52970874,17.8978085 7.92320388,19.2182411 10.6348544,18.2109787 C13.8078641,17.0324468 15.0294175,12.2264326 12.8615534,9.62540426 C12.0626214,8.66670213 11.0172816,8.25088652 9.78495146,8.26571631 C6.84699029,8.30119149 4.6176699,10.7550851 4.60980583,13.9609362 L4.60980583,13.9609362 Z M42.478835,12.854227 C42.4695146,12.6966241 42.4636893,12.3575745 42.4275728,12.0217234 C42.1019417,9.00139007 39.4342718,7.4224539 36.6075728,8.5733617 C33.8402913,9.70013475 32.4113592,13.0240426 33.4625243,15.8149504 C34.0797087,17.4532057 35.2954369,18.2641915 36.9748544,18.4264468 C40.0176699,18.7207163 42.3812621,16.3869149 42.478835,12.854227 L42.478835,12.854227 Z" id="Fill-1"></path>
                            <path d="M30.4354369,37.0869716 C30.2749515,38.2439858 30.1325243,39.092773 30.0463107,39.9473759 C29.9752427,40.6539716 29.6362136,40.9921489 28.9202913,40.978773 C28.1592233,40.964234 27.3975728,40.9755745 26.603301,40.9755745 C26.4562136,40.2686879 26.3519417,39.7670922 26.2080583,39.0753262 C24.1628155,39.846766 22.1268932,40.0540922 20.1323301,39.0971348 C19.0179612,38.5626809 18.1287379,37.7586738 17.3726214,36.7633333 C17.6370874,35.9465319 18.3247573,35.6167872 18.9716505,35.373695 C19.2754369,35.26 19.7501942,35.5455461 20.1291262,35.6955887 C20.9239806,36.0105035 21.6806796,36.5051206 22.5020388,36.6499291 C23.496699,36.8255603 24.2924272,36.2262624 24.5746602,35.4100426 C24.8554369,34.598766 24.6320388,33.9872553 23.7008738,33.3298014 C22.6325243,32.5758085 21.4718447,31.9451064 20.4445631,31.1422624 C17.6959223,28.9931064 18.6148544,25.1335816 21.0827184,23.794539 C22.398932,23.0806738 23.8313592,22.8140284 25.308932,23.1844823 C26.1503883,23.3955887 26.9612621,23.7276596 27.6238835,23.9506879 C28.578932,23.8102411 29.4040777,23.6328652 30.2367961,23.5825603 C31.0470874,23.5331277 31.9986408,23.3618582 32.0723301,24.7744681 C36.456699,22.0905674 40.146699,22.7837872 43.2629126,26.8302837 C45.1243689,24.6587376 47.1905825,23.1306879 50.0842718,23.0143759 C52.9532039,22.899227 55.0957282,24.1923262 56.9196117,26.4144681 C59.3254369,23.1728511 62.1541748,21.1964184 66.3524272,21.7108085 C66.2298058,23.018156 66.1232039,24.1556879 66.0113592,25.3493404 C65.6533981,25.4112766 65.3813592,25.4714681 65.1058252,25.5037447 C62.441068,25.8169149 60.1992233,27.8596454 59.7876699,30.3557021 C59.315534,33.2163972 60.6023301,35.6877376 63.3058252,36.8290496 C64.1839806,37.2000851 64.5425243,37.6659149 64.3986408,38.5705319 C64.2798058,39.3184184 64.1743689,40.0686312 64.0459223,40.9357376 C61.7397087,40.6644397 60.0672816,39.6074539 58.6092233,38.1349433 C57.1738835,36.6845319 56.3449515,34.9005957 55.9118447,32.8537943 L45.991165,32.8537943 C46.1199029,35.7900922 49.1994175,37.5277943 51.9725243,36.3193121 C52.3698058,36.1465887 52.8043689,35.9558369 53.0892233,35.6505177 C53.9070874,34.7735248 54.6940777,34.9837589 55.5282524,35.5778227 C55.9095146,35.8494113 56.3053398,36.1006454 56.7733981,36.4138156 C55.0141748,38.981695 52.6299029,39.8735177 49.7915534,39.7258014 C46.9564078,39.5783759 44.694466,38.3184255 43.0019417,35.8264397 C41.3717476,37.7476241 39.5723301,39.2000709 37.0639806,39.5492979 C34.5081553,39.9046312 32.4652427,38.8572411 30.4354369,37.0869716 L30.4354369,37.0869716 Z M40.3680583,31.2143759 C40.3730097,28.8535319 39.3835922,27.1483972 37.831165,26.548227 C36.0404854,25.8555887 34.0832039,26.3446809 32.6335922,27.7985816 C31.542233,28.8927872 31.0505825,30.260617 30.9803883,31.7299291 C30.9034951,33.3370709 31.3692233,34.835461 32.8013592,35.7860213 C34.2471845,36.7458865 35.8293204,36.8339929 37.3645631,36.0375461 C39.4106796,34.975617 40.2996117,33.1724894 40.3680583,31.2143759 L40.3680583,31.2143759 Z M46.3197087,29.6432908 C48.8682524,29.7939149 51.3929126,29.7677447 53.9330097,29.6589929 C53.7323301,27.3225745 52.4807767,26.1428794 50.3548544,26.1126383 C48.2417476,26.0823972 46.6406796,27.4287092 46.3197087,29.6432908 L46.3197087,29.6432908 Z M27.8764078,27.4060284 C27.1316505,27.0477872 26.6003883,26.6979787 26.0169903,26.5351418 C25.2964078,26.3336312 24.4939806,26.0838511 23.7958252,26.216156 C22.4315534,26.4746596 22.0147573,28.1303617 23.0918447,28.9872908 C24.3171845,29.9622766 25.6785437,30.7665745 27.2114563,31.8002979 C27.4648544,30.1254043 27.6713592,28.760773 27.8764078,27.4060284 L27.8764078,27.4060284 Z" id="Fill-2"></path>
                            <path d="M67.258835,21.7404681 C70.914466,22.6206596 73.2827184,24.6520496 74.5473786,27.8677872 C75.7957282,31.0413617 75.3614563,34.1387518 73.5649515,37.1122695 C73.8547573,37.3070922 74.2147573,37.4155532 74.2837864,37.6211348 C74.4728155,38.1835035 74.6775728,38.807227 74.5939806,39.3646525 C74.5534951,39.6368227 73.902233,39.9613333 73.4970874,40.0101844 C71.9586408,40.1951206 70.4091262,40.3125957 68.8607767,40.3867447 C67.7487379,40.4399574 67.6001942,40.2608369 67.4653398,39.2029787 C67.3004854,37.9087163 67.1134951,36.6170709 66.9643689,35.3210638 C66.9157282,34.8988511 66.9567961,34.466461 66.9567961,34.0654752 C68.7559223,33.174234 68.9475728,33.251 69.72,35.2882057 C70.8905825,34.0427943 71.4629126,32.6738014 71.3819417,31.0797447 C71.2642718,28.7651348 70.1609709,27.045461 68.052233,26.0082482 C66.707767,25.347305 66.6952427,25.3458511 66.8804854,23.8297234 C66.9556311,23.217922 67.0980583,22.6139716 67.258835,21.7404681" id="Fill-3"></path>
                        </g>
                    </g>
                </g>
            </g>
        </g>
    </g>
</svg>