<svg xmlns="http://www.w3.org/2000/svg" viewBox="0 0 512 512">
        <path d="M257,512.5 C115.614,512.5 1,397.884 1,256.5 C1,115.116 115.616,0.5 257,0.5 C398.384,0.5 513,115.114 513,256.5 C513,397.886 398.386,512.5 257,512.5 M257,28.5 C131.078,28.5 29,130.578 29,256.5 C29,382.422 131.08,484.502 257,484.502 C382.92,484.502 485,382.42 485,256.5 C485,130.58 382.922,28.5 257,28.5 M140.758,170.202 L176.034,232.55 L129,310.256 L188.7,310.256 L235.734,232.552 L200.46,170.202 M321.674,120.498 L227.592,285.866 L288.21,392.5 L351.542,392.5 L290.918,285.866 L385,120.498 L321.674,120.498"/>
</svg>
